<svg xmlns="http://www.w3.org/2000/svg" xmlns:xlink="http://www.w3.org/1999/xlink" width="200" zoomAndPan="magnify" viewBox="0 0 150 149.999998" height="200" preserveAspectRatio="xMidYMid meet" version="1.0"><path fill="#241c1a" d="M 150 75 C 150 76.226562 149.96875 77.453125 149.910156 78.679688 C 149.847656 79.90625 149.757812 81.128906 149.640625 82.351562 C 149.519531 83.574219 149.367188 84.789062 149.1875 86.003906 C 149.007812 87.21875 148.796875 88.429688 148.558594 89.632812 C 148.320312 90.835938 148.050781 92.03125 147.753906 93.222656 C 147.453125 94.414062 147.125 95.597656 146.769531 96.769531 C 146.414062 97.945312 146.027344 99.109375 145.617188 100.265625 C 145.203125 101.421875 144.761719 102.566406 144.289062 103.703125 C 143.820312 104.835938 143.324219 105.957031 142.800781 107.066406 C 142.273438 108.175781 141.722656 109.273438 141.144531 110.355469 C 140.566406 111.4375 139.960938 112.503906 139.328125 113.558594 C 138.699219 114.609375 138.042969 115.648438 137.359375 116.667969 C 136.679688 117.6875 135.972656 118.691406 135.242188 119.675781 C 134.507812 120.664062 133.753906 121.628906 132.976562 122.578125 C 132.195312 123.527344 131.394531 124.457031 130.570312 125.367188 C 129.746094 126.277344 128.902344 127.164062 128.03125 128.03125 C 127.164062 128.902344 126.277344 129.746094 125.367188 130.570312 C 124.457031 131.394531 123.527344 132.195312 122.578125 132.976562 C 121.628906 133.753906 120.664062 134.507812 119.675781 135.242188 C 118.691406 135.972656 117.6875 136.679688 116.667969 137.359375 C 115.648438 138.042969 114.609375 138.699219 113.558594 139.328125 C 112.503906 139.960938 111.4375 140.566406 110.355469 141.144531 C 109.273438 141.722656 108.175781 142.273438 107.066406 142.800781 C 105.957031 143.324219 104.835938 143.820312 103.703125 144.289062 C 102.566406 144.761719 101.421875 145.203125 100.265625 145.617188 C 99.109375 146.027344 97.945312 146.414062 96.769531 146.769531 C 95.597656 147.125 94.414062 147.453125 93.222656 147.753906 C 92.03125 148.050781 90.835938 148.320312 89.632812 148.558594 C 88.429688 148.796875 87.21875 149.007812 86.003906 149.1875 C 84.789062 149.367188 83.574219 149.519531 82.351562 149.640625 C 81.128906 149.757812 79.90625 149.847656 78.679688 149.910156 C 77.453125 149.96875 76.226562 150 75 150 C 73.773438 150 72.546875 149.96875 71.320312 149.910156 C 70.09375 149.847656 68.871094 149.757812 67.648438 149.640625 C 66.425781 149.519531 65.210938 149.367188 63.996094 149.1875 C 62.78125 149.007812 61.570312 148.796875 60.367188 148.558594 C 59.164062 148.320312 57.96875 148.050781 56.777344 147.753906 C 55.585938 147.453125 54.402344 147.125 53.230469 146.769531 C 52.054688 146.414062 50.890625 146.027344 49.734375 145.617188 C 48.578125 145.203125 47.433594 144.761719 46.296875 144.289062 C 45.164062 143.820312 44.042969 143.324219 42.933594 142.800781 C 41.824219 142.273438 40.726562 141.722656 39.644531 141.144531 C 38.5625 140.566406 37.496094 139.960938 36.441406 139.328125 C 35.390625 138.699219 34.351562 138.042969 33.332031 137.359375 C 32.3125 136.679688 31.308594 135.972656 30.324219 135.242188 C 29.335938 134.507812 28.371094 133.753906 27.421875 132.976562 C 26.472656 132.195312 25.542969 131.394531 24.632812 130.570312 C 23.722656 129.746094 22.835938 128.902344 21.96875 128.03125 C 21.097656 127.164062 20.253906 126.277344 19.429688 125.367188 C 18.605469 124.457031 17.804688 123.527344 17.023438 122.578125 C 16.246094 121.628906 15.492188 120.664062 14.757812 119.675781 C 14.027344 118.691406 13.320312 117.6875 12.640625 116.667969 C 11.957031 115.648438 11.300781 114.609375 10.671875 113.558594 C 10.039062 112.503906 9.433594 111.4375 8.855469 110.355469 C 8.277344 109.273438 7.726562 108.175781 7.199219 107.066406 C 6.675781 105.957031 6.179688 104.835938 5.710938 103.703125 C 5.238281 102.566406 4.796875 101.421875 4.382812 100.265625 C 3.96875 99.109375 3.585938 97.945312 3.230469 96.769531 C 2.875 95.597656 2.546875 94.414062 2.246094 93.222656 C 1.949219 92.03125 1.679688 90.835938 1.441406 89.632812 C 1.203125 88.429688 0.992188 87.21875 0.8125 86.003906 C 0.632812 84.789062 0.480469 83.574219 0.359375 82.351562 C 0.242188 81.128906 0.152344 79.90625 0.0898438 78.679688 C 0.03125 77.453125 0 76.226562 0 75 C 0 73.773438 0.03125 72.546875 0.0898438 71.320312 C 0.152344 70.09375 0.242188 68.871094 0.359375 67.648438 C 0.480469 66.425781 0.632812 65.210938 0.8125 63.996094 C 0.992188 62.78125 1.203125 61.570312 1.441406 60.367188 C 1.679688 59.164062 1.949219 57.96875 2.246094 56.777344 C 2.546875 55.585938 2.875 54.402344 3.230469 53.230469 C 3.585938 52.054688 3.96875 50.890625 4.382812 49.734375 C 4.796875 48.578125 5.238281 47.433594 5.710938 46.296875 C 6.179688 45.164062 6.675781 44.042969 7.199219 42.933594 C 7.726562 41.824219 8.277344 40.726562 8.855469 39.644531 C 9.433594 38.5625 10.039062 37.496094 10.671875 36.441406 C 11.300781 35.390625 11.957031 34.351562 12.640625 33.332031 C 13.320312 32.3125 14.027344 31.308594 14.757812 30.324219 C 15.492188 29.335938 16.246094 28.371094 17.023438 27.421875 C 17.804688 26.472656 18.605469 25.542969 19.429688 24.632812 C 20.253906 23.722656 21.097656 22.835938 21.96875 21.96875 C 22.835938 21.097656 23.722656 20.253906 24.632812 19.429688 C 25.542969 18.605469 26.472656 17.804688 27.421875 17.023438 C 28.371094 16.246094 29.335938 15.492188 30.324219 14.757812 C 31.308594 14.027344 32.3125 13.320312 33.332031 12.640625 C 34.351562 11.957031 35.390625 11.300781 36.441406 10.671875 C 37.496094 10.039062 38.5625 9.433594 39.644531 8.855469 C 40.726562 8.277344 41.824219 7.726562 42.933594 7.199219 C 44.042969 6.675781 45.164062 6.179688 46.296875 5.710938 C 47.433594 5.238281 48.578125 4.796875 49.734375 4.382812 C 50.890625 3.96875 52.054688 3.585938 53.230469 3.230469 C 54.402344 2.875 55.585938 2.546875 56.777344 2.246094 C 57.96875 1.949219 59.164062 1.679688 60.367188 1.441406 C 61.570312 1.203125 62.78125 0.992188 63.996094 0.8125 C 65.210938 0.632812 66.425781 0.480469 67.648438 0.359375 C 68.871094 0.242188 70.09375 0.152344 71.320312 0.0898438 C 72.546875 0.03125 73.773438 0 75 0 C 76.226562 0 77.453125 0.03125 78.679688 0.0898438 C 79.90625 0.152344 81.128906 0.242188 82.351562 0.359375 C 83.574219 0.480469 84.789062 0.632812 86.003906 0.8125 C 87.21875 0.992188 88.429688 1.203125 89.632812 1.441406 C 90.835938 1.679688 92.03125 1.949219 93.222656 2.246094 C 94.414062 2.546875 95.597656 2.875 96.769531 3.230469 C 97.945312 3.585938 99.109375 3.96875 100.265625 4.382812 C 101.421875 4.796875 102.566406 5.238281 103.703125 5.710938 C 104.835938 6.179688 105.957031 6.675781 107.066406 7.199219 C 108.175781 7.726562 109.273438 8.277344 110.355469 8.855469 C 111.4375 9.433594 112.503906 10.039062 113.558594 10.671875 C 114.609375 11.300781 115.648438 11.957031 116.667969 12.640625 C 117.6875 13.320312 118.691406 14.027344 119.675781 14.757812 C 120.664062 15.492188 121.628906 16.246094 122.578125 17.023438 C 123.527344 17.804688 124.457031 18.605469 125.367188 19.429688 C 126.277344 20.253906 127.164062 21.097656 128.03125 21.96875 C 128.902344 22.835938 129.746094 23.722656 130.570312 24.632812 C 131.394531 25.542969 132.195312 26.472656 132.976562 27.421875 C 133.753906 28.371094 134.507812 29.335938 135.242188 30.324219 C 135.972656 31.308594 136.679688 32.3125 137.359375 33.332031 C 138.042969 34.351562 138.699219 35.390625 139.328125 36.441406 C 139.960938 37.496094 140.566406 38.5625 141.144531 39.644531 C 141.722656 40.726562 142.273438 41.824219 142.800781 42.933594 C 143.324219 44.042969 143.820312 45.164062 144.289062 46.296875 C 144.761719 47.433594 145.203125 48.578125 145.617188 49.734375 C 146.027344 50.890625 146.414062 52.054688 146.769531 53.230469 C 147.125 54.402344 147.453125 55.585938 147.753906 56.777344 C 148.050781 57.96875 148.320312 59.164062 148.558594 60.367188 C 148.796875 61.570312 149.007812 62.78125 149.1875 63.996094 C 149.367188 65.210938 149.519531 66.425781 149.640625 67.648438 C 149.757812 68.871094 149.847656 70.09375 149.910156 71.320312 C 149.96875 72.546875 150 73.773438 150 75 Z M 150 75 " fill-opacity="1" fill-rule="nonzero"/><path fill="#ffffff" d="M 51.988281 81.75 C 53.96875 87.628906 58.109375 92.519531 63.570312 95.460938 L 63.570312 111.148438 C 63.570312 113.25 64.410156 115.289062 65.910156 116.761719 C 67.410156 118.261719 69.421875 119.070312 71.519531 119.070312 L 78.480469 119.070312 C 80.578125 119.070312 82.621094 118.261719 84.089844 116.761719 C 85.589844 115.261719 86.429688 113.25 86.429688 111.148438 L 86.429688 95.460938 C 90.898438 93.121094 94.5 89.398438 96.71875 84.898438 C 102.691406 72.929688 97.828125 58.289062 85.828125 52.320312 C 77.039062 47.941406 66.480469 49.261719 59.070312 55.710938 C 51.660156 62.160156 48.871094 72.449219 51.988281 81.75 Z M 75.03125 84.421875 C 70.800781 84.421875 67.410156 81 67.410156 76.769531 C 67.410156 72.539062 70.828125 69.148438 75.03125 69.148438 C 79.261719 69.148438 82.679688 72.570312 82.679688 76.769531 C 82.648438 81 79.230469 84.421875 75.03125 84.421875 Z M 75.03125 87.421875 C 75.78125 87.421875 76.53125 87.328125 77.28125 87.179688 L 77.28125 99.75 L 72.78125 99.75 L 72.78125 87.179688 C 73.5 87.328125 74.25 87.421875 75.03125 87.421875 Z M 83.460938 102.75 L 83.460938 107.609375 L 66.601562 107.609375 L 66.601562 102.75 Z M 78.511719 116.070312 L 71.550781 116.070312 C 70.230469 116.070312 68.96875 115.558594 68.039062 114.628906 C 67.109375 113.699219 66.601562 112.441406 66.601562 111.148438 L 66.601562 110.640625 L 83.460938 110.640625 L 83.460938 111.148438 C 83.460938 112.46875 82.949219 113.730469 82.019531 114.628906 C 81.058594 115.558594 79.800781 116.070312 78.511719 116.070312 Z M 55.980469 64.558594 C 60.121094 56.28125 69.148438 51.601562 78.300781 53.039062 C 87.449219 54.449219 94.648438 61.648438 96.058594 70.800781 C 97.46875 79.949219 92.820312 88.980469 84.539062 93.121094 C 84.511719 93.148438 84.449219 93.148438 84.421875 93.179688 C 83.851562 93.421875 83.460938 93.960938 83.460938 94.558594 L 83.460938 99.78125 L 80.28125 99.78125 L 80.28125 86.039062 C 84.480469 83.671875 86.550781 78.75 85.320312 74.070312 C 84.089844 69.390625 79.859375 66.148438 75.03125 66.148438 C 70.199219 66.148438 65.96875 69.390625 64.738281 74.070312 C 63.511719 78.75 65.578125 83.640625 69.78125 86.039062 L 69.78125 99.78125 L 66.601562 99.78125 L 66.601562 94.558594 C 66.601562 93.960938 66.210938 93.390625 65.640625 93.179688 C 65.609375 93.148438 65.578125 93.148438 65.519531 93.121094 C 54.988281 87.839844 50.730469 75.058594 55.980469 64.558594 Z M 55.980469 64.558594 " fill-opacity="1" fill-rule="nonzero"/><path fill="#ffffff" d="M 75.03125 42.839844 C 75.871094 42.839844 76.53125 42.179688 76.53125 41.339844 L 76.53125 32.429688 C 76.53125 31.589844 75.871094 30.929688 75.03125 30.929688 C 74.191406 30.929688 73.53125 31.589844 73.53125 32.429688 L 73.53125 41.339844 C 73.53125 42.179688 74.191406 42.839844 75.03125 42.839844 Z M 75.03125 42.839844 " fill-opacity="1" fill-rule="nonzero"/><path fill="#ffffff" d="M 107.25 75.03125 L 116.039062 75.03125 C 116.878906 75.03125 117.539062 74.371094 117.539062 73.53125 C 117.539062 72.691406 116.878906 72.03125 116.039062 72.03125 L 107.25 72.03125 C 106.410156 72.03125 105.75 72.691406 105.75 73.53125 C 105.75 74.371094 106.410156 75.03125 107.25 75.03125 Z M 107.25 75.03125 " fill-opacity="1" fill-rule="nonzero"/><path fill="#ffffff" d="M 33.988281 75.03125 L 42.78125 75.03125 C 43.621094 75.03125 44.28125 74.371094 44.28125 73.53125 C 44.28125 72.691406 43.621094 72.03125 42.78125 72.03125 L 33.988281 72.03125 C 33.148438 72.03125 32.488281 72.691406 32.488281 73.53125 C 32.488281 74.371094 33.179688 75.03125 33.988281 75.03125 Z M 33.988281 75.03125 " fill-opacity="1" fill-rule="nonzero"/><path fill="#ffffff" d="M 97.5 52.050781 C 97.890625 52.050781 98.28125 51.898438 98.550781 51.601562 L 104.699219 45.449219 C 105.269531 44.851562 105.269531 43.921875 104.699219 43.320312 C 104.101562 42.75 103.171875 42.75 102.570312 43.320312 L 96.421875 49.5 C 96 49.921875 95.851562 50.578125 96.089844 51.121094 C 96.328125 51.691406 96.871094 52.050781 97.5 52.050781 Z M 97.5 52.050781 " fill-opacity="1" fill-rule="nonzero"/><path fill="#ffffff" d="M 51.480469 51.628906 C 51.871094 52.019531 52.410156 52.171875 52.921875 52.019531 C 53.429688 51.871094 53.851562 51.480469 53.96875 50.96875 C 54.121094 50.460938 53.96875 49.890625 53.578125 49.53125 L 47.429688 43.378906 C 46.828125 42.78125 45.898438 42.78125 45.300781 43.378906 C 44.699219 43.980469 44.699219 44.910156 45.300781 45.511719 Z M 51.480469 51.628906 " fill-opacity="1" fill-rule="nonzero"/></svg>